<svg xmlns="http://www.w3.org/2000/svg" viewBox="0 0 101.79 117.41"><defs><style>.cls-1{fill:#3fab9a;}.cls-2{fill:#fff;}.cls-3{fill:#373931;}.cls-4{fill:#e8be9e;}.cls-4,.cls-5,.cls-7{stroke:#373931;stroke-linecap:round;stroke-linejoin:round;stroke-width:3.46px;}.cls-5{fill:#716558;}.cls-6{fill:#daf0f2;}.cls-7{fill:none;}</style></defs><g id="Layer_2" data-name="Layer 2"><g id="Layer_1-2" data-name="Layer 1"><polygon class="cls-1" points="0 28.83 0 88.58 49.94 117.41 99.89 88.58 99.89 28.83 49.94 0 0 28.83"/><path class="cls-2" d="M81.92,15H44.39A29.59,29.59,0,0,0,14.8,44.63V64H12a4.19,4.19,0,0,0-4.2,4.19v4.61A4.2,4.2,0,0,0,12,77h2.8v1.64A16.37,16.37,0,0,0,31.16,95h45a7.65,7.65,0,0,0,7.64-7.65V74H86a3.82,3.82,0,0,0,3.81-3.82v-7.7A2.48,2.48,0,0,0,87.32,60H83.8V53h-.74c8.7,0,15.74-7.58,15.74-16.92V31.91A16.87,16.87,0,0,0,81.92,15Z"/><path class="cls-3" d="M81.92,12.16H46.82a50.23,50.23,0,0,0-7.35.39,31.77,31.77,0,0,0-14.63,6.18A32.44,32.44,0,0,0,14.67,31.58a36.83,36.83,0,0,0-2.75,14.93V64l2.88-2.88c-2.32,0-4.71-.19-6.73,1.2a7.17,7.17,0,0,0-3.13,5.53c-.05.79,0,1.6,0,2.4,0,2.85,0,5.69,2.31,7.77s4.83,1.86,7.57,1.86L11.92,77a24.77,24.77,0,0,0,.71,6.81,19.57,19.57,0,0,0,4.15,7.6,19.36,19.36,0,0,0,14.38,6.47c4.42,0,8.83,0,13.25,0h30.1c2.65,0,5.23-.22,7.51-1.8a10.73,10.73,0,0,0,4.66-8.74c0-1.21,0-2.43,0-3.64V74L83.8,76.92a21.38,21.38,0,0,0,3.3-.12,6.67,6.67,0,0,0,4.82-3.49c1.11-2.14.76-4.86.76-7.19,0-2.49.4-5.3-1.46-7.28s-4.83-1.68-7.42-1.68L86.68,60V53a2.92,2.92,0,0,0-2.88-2.88h-.74v5.76c9.72-.11,17.27-7.89,18.45-17.3a39,39,0,0,0,.09-8.43,19.72,19.72,0,0,0-19.68-18c-3.7,0-3.71,5.72,0,5.76a14,14,0,0,1,13.89,12,44.63,44.63,0,0,1,.11,6.18,15,15,0,0,1-3.22,9.31A13.07,13.07,0,0,1,88.24,49a12.3,12.3,0,0,1-5.18,1.18c-3.7,0-3.71,5.76,0,5.76h.74L80.92,53v7a2.93,2.93,0,0,0,2.88,2.88H86c.26,0,.87.13,1.1,0s.12.12-.1-.12,0-.3-.12-.16a2.84,2.84,0,0,0,0,.77v2.71c0,1.29.07,2.92,0,4.06a1,1,0,0,1-1,1c-.71,0-1.43,0-2.15,0A2.92,2.92,0,0,0,80.92,74V86.4a6,6,0,0,1-.57,3.25c-1.18,2-2.85,2.51-5.24,2.51H31.86A14.26,14.26,0,0,1,23,89.41a13.56,13.56,0,0,1-4.38-5.82A17,17,0,0,1,17.68,77a2.92,2.92,0,0,0-2.88-2.88H12.69c-.23,0-.46,0-.69,0a1.62,1.62,0,0,1-.69-.17,1.26,1.26,0,0,1-.63-1.35V70.29c0-.66,0-1.33,0-2A1.31,1.31,0,0,1,11.53,67c-.28.15.41-.1.18-.06s.24,0,.35,0c.31,0,.63,0,.94,0h1.8A2.92,2.92,0,0,0,17.68,64V48.31c0-3.78,0-7.16.94-10.73a26.8,26.8,0,0,1,20-19A32.71,32.71,0,0,1,46,17.92H81.92C85.63,17.92,85.64,12.16,81.92,12.16Z"/><path class="cls-4" d="M14.8,53V64H12a4.19,4.19,0,0,0-4.2,4.19v4.61A4.2,4.2,0,0,0,12,77h2.8v1.64A16.37,16.37,0,0,0,31.16,95h45a7.65,7.65,0,0,0,7.64-7.65V53Z"/><path class="cls-5" d="M81.92,15H44.39A29.59,29.59,0,0,0,14.8,44.63V70a3,3,0,0,0,3,3h2a3,3,0,0,0,3-3V62.9A9.86,9.86,0,0,1,32.67,53H81.92A16.88,16.88,0,0,0,98.8,36.16V31.91A16.87,16.87,0,0,0,81.92,15Z"/><path class="cls-6" d="M70.12,76.26a5.54,5.54,0,0,1-5.54-5.54V63a4.21,4.21,0,0,1,4.21-4.21h18A4.22,4.22,0,0,1,91,63v7.7a5.55,5.55,0,0,1-5.55,5.54Z"/><path class="cls-3" d="M86.82,60.54A2.48,2.48,0,0,1,89.3,63v7.7a3.82,3.82,0,0,1-3.81,3.82H70.12a3.82,3.82,0,0,1-3.82-3.82V63a2.49,2.49,0,0,1,2.49-2.48h18m0-3.46h-18A5.94,5.94,0,0,0,62.85,63v7.7A7.28,7.28,0,0,0,70.12,78H85.49a7.28,7.28,0,0,0,7.27-7.27V63a5.94,5.94,0,0,0-5.94-5.94Z"/><path class="cls-6" d="M34.12,76.26a5.54,5.54,0,0,1-5.54-5.54V63a4.21,4.21,0,0,1,4.21-4.21h18A4.22,4.22,0,0,1,55,63v7.7a5.55,5.55,0,0,1-5.55,5.54Z"/><path class="cls-3" d="M50.82,60.54A2.48,2.48,0,0,1,53.3,63v7.7a3.82,3.82,0,0,1-3.81,3.82H34.12a3.82,3.82,0,0,1-3.82-3.82V63a2.49,2.49,0,0,1,2.49-2.48h18m0-3.46h-18A5.94,5.94,0,0,0,26.85,63v7.7A7.28,7.28,0,0,0,34.12,78H49.49a7.28,7.28,0,0,0,7.27-7.27V63a5.94,5.94,0,0,0-5.94-5.94Z"/><circle class="cls-3" cx="44.3" cy="66.54" r="2"/><circle class="cls-3" cx="79.3" cy="66.54" r="2"/><line class="cls-7" x1="14.8" y1="64.04" x2="27.8" y2="64.04"/><line class="cls-7" x1="55.8" y1="64.04" x2="63.8" y2="64.04"/><path class="cls-3" d="M48.89,83.32c2.36,4.5,9,5.78,13.17,3.18,1.57-1,.13-3.47-1.45-2.49a7.18,7.18,0,0,1-5.31.72,6.77,6.77,0,0,1-2.53-1.16,5,5,0,0,1-1.39-1.71,1.44,1.44,0,0,0-2.49,1.46Z"/></g></g></svg>